<?xml version="1.0" standalone="no"?>
<!DOCTYPE svg PUBLIC "-//W3C//DTD SVG 20010904//EN"
 "http://www.w3.org/TR/2001/REC-SVG-20010904/DTD/svg10.dtd">
<svg version="1.0" xmlns="http://www.w3.org/2000/svg"
 width="700.000000pt" height="700.000000pt" viewBox="0 0 700.000000 700.000000"
 preserveAspectRatio="xMidYMid meet">
<metadata>
Created by potrace 1.14, written by Peter Selinger 2001-2017
</metadata>
<g transform="translate(0.000000,700.000000) scale(0.100000,-0.100000)"
fill="#000000" stroke="none">
<path d="M2636 6830 c1 -93 -1 -170 -4 -170 -2 0 -36 11 -74 25 -70 25 -236
70 -295 80 -18 3 -48 8 -65 11 -117 20 -350 25 -483 10 -394 -45 -782 -222
-1046 -477 -66 -64 -90 -167 -62 -261 21 -71 93 -142 164 -162 102 -29 181 -7
275 76 172 154 392 258 639 304 97 18 302 23 400 10 157 -20 306 -66 451 -138
l101 -50 0 -1979 c0 -1088 3 -1982 6 -1986 12 -11 1306 -9 1310 2 1 6 2 493 2
1083 l-1 1072 60 0 c78 1 1846 1 1866 0 13 0 15 -125 15 -1076 0 -642 4 -1078
9 -1081 5 -4 253 -6 550 -6 l541 0 3 2441 2 2442 -553 0 -552 0 1 -182 c0
-101 -1 -188 -3 -194 -3 -8 -21 -4 -52 12 -75 36 -236 89 -344 114 -219 49
-485 59 -702 24 -121 -19 -324 -73 -375 -99 -16 -8 -35 -15 -42 -15 -23 0
-261 -124 -340 -178 -42 -29 -79 -52 -81 -52 -2 0 -3 128 -3 285 l1 285 -660
0 -660 0 1 -170z m2624 -555 c214 -32 442 -119 582 -223 l53 -39 0 -361 c0
-198 -4 -364 -8 -369 -5 -4 -442 -8 -971 -8 l-962 0 1 220 c1 121 3 226 3 233
2 13 175 190 232 236 120 97 295 195 443 246 80 28 253 66 327 72 57 5 251 1
300 -7z"/>
<path d="M284 5079 c-62 -17 -127 -72 -159 -133 -27 -54 -29 -65 -29 -169 1
-384 76 -796 221 -1217 20 -58 49 -136 65 -175 16 -38 33 -81 37 -95 32 -98
226 -487 329 -658 243 -407 635 -852 1142 -1296 185 -162 170 -150 338 -284
459 -367 1112 -819 1215 -841 57 -13 119 -5 170 20 55 28 320 203 522 344 342
239 788 586 838 652 124 165 -1 407 -209 404 -71 0 -122 -26 -235 -120 -229
-190 -637 -490 -907 -669 l-123 -81 -171 115 c-1008 683 -1741 1370 -2129
1994 -54 87 -213 395 -263 510 -15 36 -36 83 -46 105 -16 37 -35 87 -94 253
-66 179 -141 489 -161 662 -3 25 -8 54 -10 65 -7 39 -16 172 -19 295 -4 132
-15 175 -60 235 -52 68 -176 107 -262 84z"/>
</g>
</svg>
